<mxfile host="Electron" modified="2023-05-06T08:51:34.160Z" agent="Mozilla/5.0 (Macintosh; Intel Mac OS X 10_15_7) AppleWebKit/537.36 (KHTML, like Gecko) draw.io/21.2.8 Chrome/112.0.5615.165 Electron/24.2.0 Safari/537.36" etag="NMoSwBPTs1Qn_qMWbXn6" version="21.2.8" type="device">
  <diagram name="페이지-1" id="WjTWZu_wgfsH3Yp1EPEO">
    <mxGraphModel dx="1114" dy="741" grid="1" gridSize="10" guides="1" tooltips="1" connect="1" arrows="1" fold="1" page="1" pageScale="1" pageWidth="400" pageHeight="200" math="0" shadow="0">
      <root>
        <mxCell id="0" />
        <mxCell id="1" parent="0" />
        <mxCell id="AjTzXF5Oelp-aFMQVaQH-12" value="" style="shape=cube;whiteSpace=wrap;html=1;boundedLbl=1;backgroundOutline=1;darkOpacity=0;darkOpacity2=0;size=40;flipH=1;fillColor=#ffe6cc;strokeColor=#d79b00;" parent="1" vertex="1">
          <mxGeometry x="230" y="200" width="50" height="140" as="geometry" />
        </mxCell>
        <mxCell id="AjTzXF5Oelp-aFMQVaQH-14" value="Features" style="text;html=1;strokeColor=none;fillColor=none;align=center;verticalAlign=middle;whiteSpace=wrap;rounded=0;" parent="1" vertex="1">
          <mxGeometry x="235" y="360" width="40" as="geometry" />
        </mxCell>
        <mxCell id="AjTzXF5Oelp-aFMQVaQH-15" value="" style="shape=cube;whiteSpace=wrap;html=1;boundedLbl=1;backgroundOutline=1;darkOpacity=0;darkOpacity2=0;size=40;flipH=1;fillColor=#f5f5f5;strokeColor=#666666;fontColor=#333333;" parent="1" vertex="1">
          <mxGeometry x="232.5" y="430" width="50" height="140" as="geometry" />
        </mxCell>
        <mxCell id="AjTzXF5Oelp-aFMQVaQH-16" value="x_t+1" style="text;html=1;strokeColor=none;fillColor=none;align=center;verticalAlign=middle;whiteSpace=wrap;rounded=0;" parent="1" vertex="1">
          <mxGeometry x="215" y="590" width="85" as="geometry" />
        </mxCell>
        <mxCell id="AjTzXF5Oelp-aFMQVaQH-18" value="" style="shape=cube;whiteSpace=wrap;html=1;boundedLbl=1;backgroundOutline=1;darkOpacity=0;darkOpacity2=0;size=40;flipH=1;fillColor=#dae8fc;strokeColor=#6c8ebf;" parent="1" vertex="1">
          <mxGeometry x="469.5" y="380" width="50" height="140" as="geometry" />
        </mxCell>
        <mxCell id="AjTzXF5Oelp-aFMQVaQH-20" value="Heatmap_Offset" style="text;html=1;strokeColor=none;fillColor=none;align=center;verticalAlign=middle;whiteSpace=wrap;rounded=0;" parent="1" vertex="1">
          <mxGeometry x="469.5" y="540" width="40" as="geometry" />
        </mxCell>
        <mxCell id="AjTzXF5Oelp-aFMQVaQH-29" value="" style="shape=cube;whiteSpace=wrap;html=1;boundedLbl=1;backgroundOutline=1;darkOpacity=0;darkOpacity2=0;size=40;flipH=1;fillColor=#f5f5f5;strokeColor=#666666;fontColor=#333333;" parent="1" vertex="1">
          <mxGeometry x="562" y="430" width="50" height="140" as="geometry" />
        </mxCell>
        <mxCell id="AjTzXF5Oelp-aFMQVaQH-30" value="x_t" style="text;html=1;strokeColor=none;fillColor=none;align=center;verticalAlign=middle;whiteSpace=wrap;rounded=0;" parent="1" vertex="1">
          <mxGeometry x="544.5" y="590" width="85" as="geometry" />
        </mxCell>
        <mxCell id="AjTzXF5Oelp-aFMQVaQH-34" value="" style="shape=cube;whiteSpace=wrap;html=1;boundedLbl=1;backgroundOutline=1;darkOpacity=0;darkOpacity2=0;size=40;flipH=1;fillColor=#f5f5f5;strokeColor=#666666;fontColor=#333333;" parent="1" vertex="1">
          <mxGeometry x="142.5" y="430" width="50" height="140" as="geometry" />
        </mxCell>
        <mxCell id="AjTzXF5Oelp-aFMQVaQH-35" value="" style="shape=cube;whiteSpace=wrap;html=1;boundedLbl=1;backgroundOutline=1;darkOpacity=0;darkOpacity2=0;size=40;flipH=1;fillColor=#f8cecc;strokeColor=#b85450;" parent="1" vertex="1">
          <mxGeometry x="652" y="430" width="50" height="140" as="geometry" />
        </mxCell>
        <mxCell id="AjTzXF5Oelp-aFMQVaQH-36" value="x_0" style="text;html=1;strokeColor=none;fillColor=none;align=center;verticalAlign=middle;whiteSpace=wrap;rounded=0;" parent="1" vertex="1">
          <mxGeometry x="634.5" y="590" width="85" as="geometry" />
        </mxCell>
        <mxCell id="AjTzXF5Oelp-aFMQVaQH-37" value="x_T" style="text;html=1;strokeColor=none;fillColor=none;align=center;verticalAlign=middle;whiteSpace=wrap;rounded=0;" parent="1" vertex="1">
          <mxGeometry x="130" y="590" width="85" as="geometry" />
        </mxCell>
        <mxCell id="AjTzXF5Oelp-aFMQVaQH-38" value="" style="endArrow=classic;startArrow=classic;html=1;rounded=0;exitX=0.4;exitY=0.5;exitDx=0;exitDy=0;exitPerimeter=0;entryX=1.018;entryY=0.499;entryDx=0;entryDy=0;entryPerimeter=0;" parent="1" source="AjTzXF5Oelp-aFMQVaQH-34" target="AjTzXF5Oelp-aFMQVaQH-15" edge="1">
          <mxGeometry width="50" height="50" relative="1" as="geometry">
            <mxPoint x="312.5" y="420" as="sourcePoint" />
            <mxPoint x="362.5" y="370" as="targetPoint" />
          </mxGeometry>
        </mxCell>
        <mxCell id="AjTzXF5Oelp-aFMQVaQH-39" value="" style="endArrow=classic;startArrow=classic;html=1;rounded=0;exitX=0.4;exitY=0.5;exitDx=0;exitDy=0;exitPerimeter=0;entryX=1.018;entryY=0.499;entryDx=0;entryDy=0;entryPerimeter=0;" parent="1" edge="1">
          <mxGeometry width="50" height="50" relative="1" as="geometry">
            <mxPoint x="592" y="499.71" as="sourcePoint" />
            <mxPoint x="651" y="499.71" as="targetPoint" />
          </mxGeometry>
        </mxCell>
        <mxCell id="G3NelD-k7GDp5YI_SeNo-8" value="" style="shape=cube;whiteSpace=wrap;html=1;boundedLbl=1;backgroundOutline=1;darkOpacity=0;darkOpacity2=0;size=40;flipH=1;fillColor=#e1d5e7;strokeColor=#9673a6;" parent="1" vertex="1">
          <mxGeometry x="469.5" y="200" width="50" height="140" as="geometry" />
        </mxCell>
        <mxCell id="G3NelD-k7GDp5YI_SeNo-10" value="Offset" style="text;html=1;strokeColor=none;fillColor=none;align=center;verticalAlign=middle;whiteSpace=wrap;rounded=0;" parent="1" vertex="1">
          <mxGeometry x="474.5" y="360" width="40" as="geometry" />
        </mxCell>
        <mxCell id="G3NelD-k7GDp5YI_SeNo-11" value="" style="shape=cube;whiteSpace=wrap;html=1;boundedLbl=1;backgroundOutline=1;darkOpacity=0;darkOpacity2=0;size=40;flipH=1;fillColor=#e1d5e7;strokeColor=#9673a6;" parent="1" vertex="1">
          <mxGeometry x="467" y="40" width="50" height="140" as="geometry" />
        </mxCell>
        <mxCell id="G3NelD-k7GDp5YI_SeNo-12" value="WH" style="text;html=1;strokeColor=none;fillColor=none;align=center;verticalAlign=middle;whiteSpace=wrap;rounded=0;" parent="1" vertex="1">
          <mxGeometry x="467" y="190" width="40" height="20" as="geometry" />
        </mxCell>
        <mxCell id="G3NelD-k7GDp5YI_SeNo-31" value="" style="curved=1;endArrow=classic;html=1;rounded=0;exitX=0.4;exitY=0.5;exitDx=0;exitDy=0;exitPerimeter=0;" parent="1" source="AjTzXF5Oelp-aFMQVaQH-12" edge="1">
          <mxGeometry width="50" height="50" relative="1" as="geometry">
            <mxPoint x="240" y="480" as="sourcePoint" />
            <mxPoint x="320" y="400" as="targetPoint" />
            <Array as="points">
              <mxPoint x="290" y="270" />
              <mxPoint x="290" y="400" />
            </Array>
          </mxGeometry>
        </mxCell>
        <mxCell id="G3NelD-k7GDp5YI_SeNo-32" value="" style="curved=1;endArrow=classic;html=1;rounded=0;exitX=0.45;exitY=0.5;exitDx=0;exitDy=0;exitPerimeter=0;" parent="1" source="AjTzXF5Oelp-aFMQVaQH-15" edge="1">
          <mxGeometry width="50" height="50" relative="1" as="geometry">
            <mxPoint x="260" y="270.5" as="sourcePoint" />
            <mxPoint x="320" y="400" as="targetPoint" />
            <Array as="points">
              <mxPoint x="290" y="500" />
              <mxPoint x="290" y="400" />
            </Array>
          </mxGeometry>
        </mxCell>
        <mxCell id="G3NelD-k7GDp5YI_SeNo-33" value="" style="curved=1;endArrow=classic;html=1;rounded=0;" parent="1" edge="1">
          <mxGeometry width="50" height="50" relative="1" as="geometry">
            <mxPoint x="500" y="450" as="sourcePoint" />
            <mxPoint x="559.5" y="500" as="targetPoint" />
            <Array as="points">
              <mxPoint x="534" y="450.5" />
              <mxPoint x="534.5" y="500" />
            </Array>
          </mxGeometry>
        </mxCell>
        <mxCell id="G3NelD-k7GDp5YI_SeNo-34" value="Detection" style="text;html=1;strokeColor=none;fillColor=none;align=center;verticalAlign=middle;whiteSpace=wrap;rounded=0;" parent="1" vertex="1">
          <mxGeometry x="650" y="330" width="40" as="geometry" />
        </mxCell>
        <mxCell id="G3NelD-k7GDp5YI_SeNo-35" value="" style="shape=cube;whiteSpace=wrap;html=1;boundedLbl=1;backgroundOutline=1;darkOpacity=0;darkOpacity2=0;size=40;flipH=1;fillColor=#ffe6cc;strokeColor=#d79b00;" parent="1" vertex="1">
          <mxGeometry x="320" y="320" width="80" height="140" as="geometry" />
        </mxCell>
        <mxCell id="G3NelD-k7GDp5YI_SeNo-36" value="Feature_Fusion" style="text;html=1;strokeColor=none;fillColor=none;align=center;verticalAlign=middle;whiteSpace=wrap;rounded=0;" parent="1" vertex="1">
          <mxGeometry x="340" y="480" width="40" as="geometry" />
        </mxCell>
        <mxCell id="G3NelD-k7GDp5YI_SeNo-39" value="" style="endArrow=classic;html=1;rounded=0;exitX=0.25;exitY=0.5;exitDx=0;exitDy=0;exitPerimeter=0;entryX=1.031;entryY=0.496;entryDx=0;entryDy=0;entryPerimeter=0;" parent="1" source="G3NelD-k7GDp5YI_SeNo-35" target="G3NelD-k7GDp5YI_SeNo-11" edge="1">
          <mxGeometry width="50" height="50" relative="1" as="geometry">
            <mxPoint x="400" y="330" as="sourcePoint" />
            <mxPoint x="450" y="280" as="targetPoint" />
          </mxGeometry>
        </mxCell>
        <mxCell id="G3NelD-k7GDp5YI_SeNo-40" value="" style="endArrow=classic;html=1;rounded=0;exitX=0.25;exitY=0.5;exitDx=0;exitDy=0;exitPerimeter=0;entryX=1.01;entryY=0.537;entryDx=0;entryDy=0;entryPerimeter=0;" parent="1" source="G3NelD-k7GDp5YI_SeNo-35" target="G3NelD-k7GDp5YI_SeNo-8" edge="1">
          <mxGeometry width="50" height="50" relative="1" as="geometry">
            <mxPoint x="400" y="330" as="sourcePoint" />
            <mxPoint x="450" y="280" as="targetPoint" />
          </mxGeometry>
        </mxCell>
        <mxCell id="G3NelD-k7GDp5YI_SeNo-41" value="" style="endArrow=classic;html=1;rounded=0;exitX=0.25;exitY=0.5;exitDx=0;exitDy=0;exitPerimeter=0;entryX=1.067;entryY=0.521;entryDx=0;entryDy=0;entryPerimeter=0;" parent="1" source="G3NelD-k7GDp5YI_SeNo-35" target="AjTzXF5Oelp-aFMQVaQH-18" edge="1">
          <mxGeometry width="50" height="50" relative="1" as="geometry">
            <mxPoint x="400" y="330" as="sourcePoint" />
            <mxPoint x="450" y="280" as="targetPoint" />
          </mxGeometry>
        </mxCell>
        <mxCell id="G3NelD-k7GDp5YI_SeNo-42" value="" style="endArrow=classic;html=1;rounded=0;exitX=0.39;exitY=0.5;exitDx=0;exitDy=0;exitPerimeter=0;" parent="1" source="G3NelD-k7GDp5YI_SeNo-8" edge="1">
          <mxGeometry width="50" height="50" relative="1" as="geometry">
            <mxPoint x="400" y="330" as="sourcePoint" />
            <mxPoint x="610" y="270" as="targetPoint" />
          </mxGeometry>
        </mxCell>
        <mxCell id="G3NelD-k7GDp5YI_SeNo-44" value="" style="endArrow=classic;html=1;rounded=0;exitX=0.45;exitY=0.5;exitDx=0;exitDy=0;exitPerimeter=0;" parent="1" source="G3NelD-k7GDp5YI_SeNo-11" edge="1">
          <mxGeometry width="50" height="50" relative="1" as="geometry">
            <mxPoint x="400" y="330" as="sourcePoint" />
            <mxPoint x="610" y="270" as="targetPoint" />
          </mxGeometry>
        </mxCell>
        <mxCell id="G3NelD-k7GDp5YI_SeNo-45" value="" style="endArrow=classic;html=1;rounded=0;" parent="1" edge="1">
          <mxGeometry width="50" height="50" relative="1" as="geometry">
            <mxPoint x="500" y="450" as="sourcePoint" />
            <mxPoint x="610" y="270" as="targetPoint" />
          </mxGeometry>
        </mxCell>
        <mxCell id="G3NelD-k7GDp5YI_SeNo-14" value="" style="shape=cube;whiteSpace=wrap;html=1;boundedLbl=1;backgroundOutline=1;darkOpacity=0;darkOpacity2=0;size=20;flipH=1;fillColor=#d5e8d4;strokeColor=#82b366;" parent="1" vertex="1">
          <mxGeometry x="607" y="235" width="130" height="70" as="geometry" />
        </mxCell>
        <mxCell id="JdAPHGG0hjGzJBnrjypk-27" style="edgeStyle=orthogonalEdgeStyle;rounded=0;orthogonalLoop=1;jettySize=auto;html=1;" parent="1" source="JdAPHGG0hjGzJBnrjypk-11" target="JdAPHGG0hjGzJBnrjypk-25" edge="1">
          <mxGeometry relative="1" as="geometry" />
        </mxCell>
        <mxCell id="JdAPHGG0hjGzJBnrjypk-11" value="" style="shape=cube;whiteSpace=wrap;html=1;boundedLbl=1;backgroundOutline=1;darkOpacity=0;darkOpacity2=0;size=40;flipH=1;fillColor=#ffe6cc;strokeColor=#d79b00;" parent="1" vertex="1">
          <mxGeometry x="153.75" y="830" width="50" height="140" as="geometry" />
        </mxCell>
        <mxCell id="JdAPHGG0hjGzJBnrjypk-12" value="Features_t" style="text;html=1;strokeColor=none;fillColor=none;align=center;verticalAlign=middle;whiteSpace=wrap;rounded=0;" parent="1" vertex="1">
          <mxGeometry x="158.75" y="990" width="40" as="geometry" />
        </mxCell>
        <mxCell id="JdAPHGG0hjGzJBnrjypk-13" style="edgeStyle=orthogonalEdgeStyle;rounded=0;orthogonalLoop=1;jettySize=auto;html=1;entryX=1.031;entryY=0.5;entryDx=0;entryDy=0;entryPerimeter=0;" parent="1" source="JdAPHGG0hjGzJBnrjypk-14" target="JdAPHGG0hjGzJBnrjypk-16" edge="1">
          <mxGeometry relative="1" as="geometry" />
        </mxCell>
        <mxCell id="JdAPHGG0hjGzJBnrjypk-14" value="" style="shape=cube;whiteSpace=wrap;html=1;boundedLbl=1;backgroundOutline=1;darkOpacity=0;darkOpacity2=0;size=40;flipH=1;fillColor=#f5f5f5;strokeColor=#666666;fontColor=#333333;" parent="1" vertex="1">
          <mxGeometry x="153.75" y="1010" width="50" height="140" as="geometry" />
        </mxCell>
        <mxCell id="JdAPHGG0hjGzJBnrjypk-15" value="heatmap_t-1" style="text;html=1;strokeColor=none;fillColor=none;align=center;verticalAlign=middle;whiteSpace=wrap;rounded=0;" parent="1" vertex="1">
          <mxGeometry x="136.25" y="1170" width="85" as="geometry" />
        </mxCell>
        <mxCell id="JdAPHGG0hjGzJBnrjypk-34" style="edgeStyle=orthogonalEdgeStyle;rounded=0;orthogonalLoop=1;jettySize=auto;html=1;" parent="1" source="JdAPHGG0hjGzJBnrjypk-16" target="JdAPHGG0hjGzJBnrjypk-31" edge="1">
          <mxGeometry relative="1" as="geometry" />
        </mxCell>
        <mxCell id="JdAPHGG0hjGzJBnrjypk-16" value="" style="shape=cube;whiteSpace=wrap;html=1;boundedLbl=1;backgroundOutline=1;darkOpacity=0;darkOpacity2=0;size=40;flipH=1;fillColor=#ffe6cc;strokeColor=#d79b00;" parent="1" vertex="1">
          <mxGeometry x="238.75" y="1010" width="80" height="140" as="geometry" />
        </mxCell>
        <mxCell id="JdAPHGG0hjGzJBnrjypk-17" value="ConvModule" style="text;html=1;strokeColor=none;fillColor=none;align=center;verticalAlign=middle;whiteSpace=wrap;rounded=0;" parent="1" vertex="1">
          <mxGeometry x="258.75" y="1170" width="40" as="geometry" />
        </mxCell>
        <mxCell id="JdAPHGG0hjGzJBnrjypk-24" style="edgeStyle=orthogonalEdgeStyle;rounded=0;orthogonalLoop=1;jettySize=auto;html=1;" parent="1" source="JdAPHGG0hjGzJBnrjypk-20" target="JdAPHGG0hjGzJBnrjypk-22" edge="1">
          <mxGeometry relative="1" as="geometry" />
        </mxCell>
        <mxCell id="JdAPHGG0hjGzJBnrjypk-20" value="" style="shape=cube;whiteSpace=wrap;html=1;boundedLbl=1;backgroundOutline=1;darkOpacity=0;darkOpacity2=0;size=40;flipH=1;fillColor=#ffe6cc;strokeColor=#d79b00;" parent="1" vertex="1">
          <mxGeometry x="153.75" y="650" width="50" height="140" as="geometry" />
        </mxCell>
        <mxCell id="JdAPHGG0hjGzJBnrjypk-21" value="Features_t-1" style="text;html=1;strokeColor=none;fillColor=none;align=center;verticalAlign=middle;whiteSpace=wrap;rounded=0;" parent="1" vertex="1">
          <mxGeometry x="130" y="810" width="97.5" as="geometry" />
        </mxCell>
        <mxCell id="JdAPHGG0hjGzJBnrjypk-33" style="edgeStyle=orthogonalEdgeStyle;rounded=0;orthogonalLoop=1;jettySize=auto;html=1;" parent="1" source="JdAPHGG0hjGzJBnrjypk-22" target="JdAPHGG0hjGzJBnrjypk-31" edge="1">
          <mxGeometry relative="1" as="geometry" />
        </mxCell>
        <mxCell id="JdAPHGG0hjGzJBnrjypk-22" value="" style="shape=cube;whiteSpace=wrap;html=1;boundedLbl=1;backgroundOutline=1;darkOpacity=0;darkOpacity2=0;size=40;flipH=1;fillColor=#ffe6cc;strokeColor=#d79b00;" parent="1" vertex="1">
          <mxGeometry x="238.75" y="650" width="80" height="140" as="geometry" />
        </mxCell>
        <mxCell id="JdAPHGG0hjGzJBnrjypk-23" value="ConvModule" style="text;html=1;strokeColor=none;fillColor=none;align=center;verticalAlign=middle;whiteSpace=wrap;rounded=0;" parent="1" vertex="1">
          <mxGeometry x="258.75" y="810" width="40" as="geometry" />
        </mxCell>
        <mxCell id="JdAPHGG0hjGzJBnrjypk-25" value="" style="shape=cube;whiteSpace=wrap;html=1;boundedLbl=1;backgroundOutline=1;darkOpacity=0;darkOpacity2=0;size=40;flipH=1;fillColor=#ffe6cc;strokeColor=#d79b00;" parent="1" vertex="1">
          <mxGeometry x="238.75" y="830" width="80" height="140" as="geometry" />
        </mxCell>
        <mxCell id="JdAPHGG0hjGzJBnrjypk-26" value="ConvModule" style="text;html=1;strokeColor=none;fillColor=none;align=center;verticalAlign=middle;whiteSpace=wrap;rounded=0;" parent="1" vertex="1">
          <mxGeometry x="258.75" y="990" width="40" as="geometry" />
        </mxCell>
        <mxCell id="JdAPHGG0hjGzJBnrjypk-43" style="edgeStyle=orthogonalEdgeStyle;rounded=0;orthogonalLoop=1;jettySize=auto;html=1;" parent="1" source="JdAPHGG0hjGzJBnrjypk-28" target="JdAPHGG0hjGzJBnrjypk-39" edge="1">
          <mxGeometry relative="1" as="geometry" />
        </mxCell>
        <mxCell id="JdAPHGG0hjGzJBnrjypk-44" style="edgeStyle=orthogonalEdgeStyle;rounded=0;orthogonalLoop=1;jettySize=auto;html=1;" parent="1" source="JdAPHGG0hjGzJBnrjypk-28" target="JdAPHGG0hjGzJBnrjypk-41" edge="1">
          <mxGeometry relative="1" as="geometry" />
        </mxCell>
        <mxCell id="JdAPHGG0hjGzJBnrjypk-28" value="" style="shape=cube;whiteSpace=wrap;html=1;boundedLbl=1;backgroundOutline=1;darkOpacity=0;darkOpacity2=0;size=40;flipH=1;fillColor=#dae8fc;strokeColor=#6c8ebf;" parent="1" vertex="1">
          <mxGeometry x="596.25" y="830" width="50" height="140" as="geometry" />
        </mxCell>
        <mxCell id="JdAPHGG0hjGzJBnrjypk-29" value="Features_t" style="text;html=1;strokeColor=none;fillColor=none;align=center;verticalAlign=middle;whiteSpace=wrap;rounded=0;" parent="1" vertex="1">
          <mxGeometry x="601.25" y="990" width="40" as="geometry" />
        </mxCell>
        <mxCell id="JdAPHGG0hjGzJBnrjypk-32" value="" style="edgeStyle=orthogonalEdgeStyle;rounded=0;orthogonalLoop=1;jettySize=auto;html=1;" parent="1" source="JdAPHGG0hjGzJBnrjypk-25" target="JdAPHGG0hjGzJBnrjypk-31" edge="1">
          <mxGeometry relative="1" as="geometry">
            <mxPoint x="319.25" y="900" as="sourcePoint" />
            <mxPoint x="436.25" y="900" as="targetPoint" />
          </mxGeometry>
        </mxCell>
        <mxCell id="JdAPHGG0hjGzJBnrjypk-37" style="edgeStyle=orthogonalEdgeStyle;rounded=0;orthogonalLoop=1;jettySize=auto;html=1;exitX=1;exitY=0.5;exitDx=0;exitDy=0;" parent="1" source="JdAPHGG0hjGzJBnrjypk-31" target="JdAPHGG0hjGzJBnrjypk-35" edge="1">
          <mxGeometry relative="1" as="geometry" />
        </mxCell>
        <mxCell id="JdAPHGG0hjGzJBnrjypk-31" value="+" style="ellipse;whiteSpace=wrap;html=1;aspect=fixed;" parent="1" vertex="1">
          <mxGeometry x="373.25" y="887.5" width="25" height="25" as="geometry" />
        </mxCell>
        <mxCell id="JdAPHGG0hjGzJBnrjypk-38" style="edgeStyle=orthogonalEdgeStyle;rounded=0;orthogonalLoop=1;jettySize=auto;html=1;" parent="1" source="JdAPHGG0hjGzJBnrjypk-35" target="JdAPHGG0hjGzJBnrjypk-28" edge="1">
          <mxGeometry relative="1" as="geometry" />
        </mxCell>
        <mxCell id="JdAPHGG0hjGzJBnrjypk-35" value="" style="shape=cube;whiteSpace=wrap;html=1;boundedLbl=1;backgroundOutline=1;darkOpacity=0;darkOpacity2=0;size=40;flipH=1;fillColor=#ffe6cc;strokeColor=#d79b00;" parent="1" vertex="1">
          <mxGeometry x="436.25" y="830" width="130" height="140" as="geometry" />
        </mxCell>
        <mxCell id="JdAPHGG0hjGzJBnrjypk-36" value="ConvModule" style="text;html=1;strokeColor=none;fillColor=none;align=center;verticalAlign=middle;whiteSpace=wrap;rounded=0;" parent="1" vertex="1">
          <mxGeometry x="456.25" y="990" width="40" as="geometry" />
        </mxCell>
        <mxCell id="JdAPHGG0hjGzJBnrjypk-39" value="" style="shape=cube;whiteSpace=wrap;html=1;boundedLbl=1;backgroundOutline=1;darkOpacity=0;darkOpacity2=0;size=40;flipH=1;fillColor=#d5e8d4;strokeColor=#82b366;" parent="1" vertex="1">
          <mxGeometry x="706.25" y="700" width="80" height="140" as="geometry" />
        </mxCell>
        <mxCell id="JdAPHGG0hjGzJBnrjypk-40" value="cls_head" style="text;html=1;strokeColor=none;fillColor=none;align=center;verticalAlign=middle;whiteSpace=wrap;rounded=0;" parent="1" vertex="1">
          <mxGeometry x="726.25" y="860" width="40" as="geometry" />
        </mxCell>
        <mxCell id="JdAPHGG0hjGzJBnrjypk-41" value="" style="shape=cube;whiteSpace=wrap;html=1;boundedLbl=1;backgroundOutline=1;darkOpacity=0;darkOpacity2=0;size=40;flipH=1;fillColor=#d5e8d4;strokeColor=#82b366;" parent="1" vertex="1">
          <mxGeometry x="706.25" y="900" width="80" height="140" as="geometry" />
        </mxCell>
        <mxCell id="JdAPHGG0hjGzJBnrjypk-42" value="reg_head" style="text;html=1;strokeColor=none;fillColor=none;align=center;verticalAlign=middle;whiteSpace=wrap;rounded=0;" parent="1" vertex="1">
          <mxGeometry x="726.25" y="1060" width="40" as="geometry" />
        </mxCell>
        <mxCell id="JdAPHGG0hjGzJBnrjypk-76" style="edgeStyle=orthogonalEdgeStyle;rounded=0;orthogonalLoop=1;jettySize=auto;html=1;" parent="1" source="JdAPHGG0hjGzJBnrjypk-46" target="JdAPHGG0hjGzJBnrjypk-68" edge="1">
          <mxGeometry relative="1" as="geometry" />
        </mxCell>
        <mxCell id="JdAPHGG0hjGzJBnrjypk-46" value="" style="shape=cube;whiteSpace=wrap;html=1;boundedLbl=1;backgroundOutline=1;darkOpacity=0;darkOpacity2=0;size=40;flipH=1;fillColor=#ffe6cc;strokeColor=#d79b00;" parent="1" vertex="1">
          <mxGeometry x="157.81" y="1360" width="50" height="140" as="geometry" />
        </mxCell>
        <mxCell id="JdAPHGG0hjGzJBnrjypk-47" value="Features_t" style="text;html=1;strokeColor=none;fillColor=none;align=center;verticalAlign=middle;whiteSpace=wrap;rounded=0;" parent="1" vertex="1">
          <mxGeometry x="162.81" y="1520" width="40" as="geometry" />
        </mxCell>
        <mxCell id="JdAPHGG0hjGzJBnrjypk-48" style="edgeStyle=orthogonalEdgeStyle;rounded=0;orthogonalLoop=1;jettySize=auto;html=1;entryX=1.031;entryY=0.5;entryDx=0;entryDy=0;entryPerimeter=0;" parent="1" source="JdAPHGG0hjGzJBnrjypk-49" target="JdAPHGG0hjGzJBnrjypk-52" edge="1">
          <mxGeometry relative="1" as="geometry" />
        </mxCell>
        <mxCell id="JdAPHGG0hjGzJBnrjypk-49" value="" style="shape=cube;whiteSpace=wrap;html=1;boundedLbl=1;backgroundOutline=1;darkOpacity=0;darkOpacity2=0;size=40;flipH=1;fillColor=#f5f5f5;strokeColor=#666666;fontColor=#333333;" parent="1" vertex="1">
          <mxGeometry x="157.81" y="1540" width="50" height="140" as="geometry" />
        </mxCell>
        <mxCell id="JdAPHGG0hjGzJBnrjypk-50" value="heatmap_t-1" style="text;html=1;strokeColor=none;fillColor=none;align=center;verticalAlign=middle;whiteSpace=wrap;rounded=0;" parent="1" vertex="1">
          <mxGeometry x="140.31" y="1700" width="85" as="geometry" />
        </mxCell>
        <mxCell id="JdAPHGG0hjGzJBnrjypk-51" style="edgeStyle=orthogonalEdgeStyle;rounded=0;orthogonalLoop=1;jettySize=auto;html=1;" parent="1" source="JdAPHGG0hjGzJBnrjypk-52" target="JdAPHGG0hjGzJBnrjypk-68" edge="1">
          <mxGeometry relative="1" as="geometry" />
        </mxCell>
        <mxCell id="JdAPHGG0hjGzJBnrjypk-52" value="" style="shape=cube;whiteSpace=wrap;html=1;boundedLbl=1;backgroundOutline=1;darkOpacity=0;darkOpacity2=0;size=40;flipH=1;fillColor=#ffe6cc;strokeColor=#d79b00;" parent="1" vertex="1">
          <mxGeometry x="242.81" y="1540" width="80" height="140" as="geometry" />
        </mxCell>
        <mxCell id="JdAPHGG0hjGzJBnrjypk-53" value="ConvModule" style="text;html=1;strokeColor=none;fillColor=none;align=center;verticalAlign=middle;whiteSpace=wrap;rounded=0;" parent="1" vertex="1">
          <mxGeometry x="262.81" y="1700" width="40" as="geometry" />
        </mxCell>
        <mxCell id="JdAPHGG0hjGzJBnrjypk-62" style="edgeStyle=orthogonalEdgeStyle;rounded=0;orthogonalLoop=1;jettySize=auto;html=1;" parent="1" source="JdAPHGG0hjGzJBnrjypk-64" target="JdAPHGG0hjGzJBnrjypk-72" edge="1">
          <mxGeometry relative="1" as="geometry" />
        </mxCell>
        <mxCell id="JdAPHGG0hjGzJBnrjypk-63" style="edgeStyle=orthogonalEdgeStyle;rounded=0;orthogonalLoop=1;jettySize=auto;html=1;" parent="1" source="JdAPHGG0hjGzJBnrjypk-64" target="JdAPHGG0hjGzJBnrjypk-74" edge="1">
          <mxGeometry relative="1" as="geometry" />
        </mxCell>
        <mxCell id="JdAPHGG0hjGzJBnrjypk-64" value="" style="shape=cube;whiteSpace=wrap;html=1;boundedLbl=1;backgroundOutline=1;darkOpacity=0;darkOpacity2=0;size=40;flipH=1;fillColor=#dae8fc;strokeColor=#6c8ebf;" parent="1" vertex="1">
          <mxGeometry x="672.1800000000001" y="1360" width="50" height="140" as="geometry" />
        </mxCell>
        <mxCell id="JdAPHGG0hjGzJBnrjypk-65" value="Features_t" style="text;html=1;strokeColor=none;fillColor=none;align=center;verticalAlign=middle;whiteSpace=wrap;rounded=0;" parent="1" vertex="1">
          <mxGeometry x="677.1800000000001" y="1520" width="40" as="geometry" />
        </mxCell>
        <mxCell id="JdAPHGG0hjGzJBnrjypk-120" style="edgeStyle=orthogonalEdgeStyle;rounded=0;orthogonalLoop=1;jettySize=auto;html=1;" parent="1" source="JdAPHGG0hjGzJBnrjypk-68" target="JdAPHGG0hjGzJBnrjypk-119" edge="1">
          <mxGeometry relative="1" as="geometry" />
        </mxCell>
        <mxCell id="JdAPHGG0hjGzJBnrjypk-68" value="+" style="ellipse;whiteSpace=wrap;html=1;aspect=fixed;" parent="1" vertex="1">
          <mxGeometry x="334.18" y="1417.5" width="25" height="25" as="geometry" />
        </mxCell>
        <mxCell id="JdAPHGG0hjGzJBnrjypk-69" style="edgeStyle=orthogonalEdgeStyle;rounded=0;orthogonalLoop=1;jettySize=auto;html=1;" parent="1" source="JdAPHGG0hjGzJBnrjypk-70" target="JdAPHGG0hjGzJBnrjypk-64" edge="1">
          <mxGeometry relative="1" as="geometry" />
        </mxCell>
        <mxCell id="JdAPHGG0hjGzJBnrjypk-70" value="" style="shape=cube;whiteSpace=wrap;html=1;boundedLbl=1;backgroundOutline=1;darkOpacity=0;darkOpacity2=0;size=40;flipH=1;fillColor=#ffe6cc;strokeColor=#d79b00;" parent="1" vertex="1">
          <mxGeometry x="462.18" y="1360" width="119.5" height="140" as="geometry" />
        </mxCell>
        <mxCell id="JdAPHGG0hjGzJBnrjypk-71" value="ConvModule" style="text;html=1;strokeColor=none;fillColor=none;align=center;verticalAlign=middle;whiteSpace=wrap;rounded=0;" parent="1" vertex="1">
          <mxGeometry x="492.18" y="1520" width="40" as="geometry" />
        </mxCell>
        <mxCell id="JdAPHGG0hjGzJBnrjypk-72" value="" style="shape=cube;whiteSpace=wrap;html=1;boundedLbl=1;backgroundOutline=1;darkOpacity=0;darkOpacity2=0;size=40;flipH=1;fillColor=#d5e8d4;strokeColor=#82b366;" parent="1" vertex="1">
          <mxGeometry x="782.1800000000001" y="1230" width="80" height="140" as="geometry" />
        </mxCell>
        <mxCell id="JdAPHGG0hjGzJBnrjypk-73" value="cls_head" style="text;html=1;strokeColor=none;fillColor=none;align=center;verticalAlign=middle;whiteSpace=wrap;rounded=0;" parent="1" vertex="1">
          <mxGeometry x="802.1800000000001" y="1390" width="40" as="geometry" />
        </mxCell>
        <mxCell id="JdAPHGG0hjGzJBnrjypk-74" value="" style="shape=cube;whiteSpace=wrap;html=1;boundedLbl=1;backgroundOutline=1;darkOpacity=0;darkOpacity2=0;size=40;flipH=1;fillColor=#d5e8d4;strokeColor=#82b366;" parent="1" vertex="1">
          <mxGeometry x="782.1800000000001" y="1430" width="80" height="140" as="geometry" />
        </mxCell>
        <mxCell id="JdAPHGG0hjGzJBnrjypk-75" value="reg_head" style="text;html=1;strokeColor=none;fillColor=none;align=center;verticalAlign=middle;whiteSpace=wrap;rounded=0;" parent="1" vertex="1">
          <mxGeometry x="802.1800000000001" y="1590" width="40" as="geometry" />
        </mxCell>
        <mxCell id="JdAPHGG0hjGzJBnrjypk-77" style="edgeStyle=orthogonalEdgeStyle;rounded=0;orthogonalLoop=1;jettySize=auto;html=1;" parent="1" source="JdAPHGG0hjGzJBnrjypk-78" target="JdAPHGG0hjGzJBnrjypk-92" edge="1">
          <mxGeometry relative="1" as="geometry" />
        </mxCell>
        <mxCell id="JdAPHGG0hjGzJBnrjypk-78" value="" style="shape=cube;whiteSpace=wrap;html=1;boundedLbl=1;backgroundOutline=1;darkOpacity=0;darkOpacity2=0;size=40;flipH=1;fillColor=#ffe6cc;strokeColor=#d79b00;" parent="1" vertex="1">
          <mxGeometry x="108.25" y="1750" width="50" height="140" as="geometry" />
        </mxCell>
        <mxCell id="JdAPHGG0hjGzJBnrjypk-79" value="Features_t" style="text;html=1;strokeColor=none;fillColor=none;align=center;verticalAlign=middle;whiteSpace=wrap;rounded=0;" parent="1" vertex="1">
          <mxGeometry x="113.25" y="1910" width="40" as="geometry" />
        </mxCell>
        <mxCell id="JdAPHGG0hjGzJBnrjypk-108" style="edgeStyle=orthogonalEdgeStyle;rounded=0;orthogonalLoop=1;jettySize=auto;html=1;" parent="1" source="JdAPHGG0hjGzJBnrjypk-82" target="JdAPHGG0hjGzJBnrjypk-84" edge="1">
          <mxGeometry relative="1" as="geometry" />
        </mxCell>
        <mxCell id="JdAPHGG0hjGzJBnrjypk-82" value="t&lt;br&gt;" style="text;html=1;strokeColor=none;fillColor=none;align=center;verticalAlign=middle;whiteSpace=wrap;rounded=0;" parent="1" vertex="1">
          <mxGeometry x="104.5" y="1970" width="40" height="50" as="geometry" />
        </mxCell>
        <mxCell id="JdAPHGG0hjGzJBnrjypk-112" style="edgeStyle=orthogonalEdgeStyle;rounded=0;orthogonalLoop=1;jettySize=auto;html=1;entryX=0.266;entryY=0.929;entryDx=0;entryDy=0;entryPerimeter=0;" parent="1" source="JdAPHGG0hjGzJBnrjypk-84" target="JdAPHGG0hjGzJBnrjypk-92" edge="1">
          <mxGeometry relative="1" as="geometry">
            <Array as="points">
              <mxPoint x="344.5" y="1995" />
              <mxPoint x="344.5" y="1928" />
              <mxPoint x="294.5" y="1928" />
            </Array>
          </mxGeometry>
        </mxCell>
        <mxCell id="JdAPHGG0hjGzJBnrjypk-113" style="edgeStyle=orthogonalEdgeStyle;rounded=0;orthogonalLoop=1;jettySize=auto;html=1;" parent="1" source="JdAPHGG0hjGzJBnrjypk-84" target="JdAPHGG0hjGzJBnrjypk-102" edge="1">
          <mxGeometry relative="1" as="geometry">
            <Array as="points">
              <mxPoint x="454.5" y="1995" />
            </Array>
          </mxGeometry>
        </mxCell>
        <mxCell id="JdAPHGG0hjGzJBnrjypk-84" value="" style="shape=cube;whiteSpace=wrap;html=1;boundedLbl=1;backgroundOutline=1;darkOpacity=0;darkOpacity2=0;size=20;flipH=1;fillColor=#d5e8d4;strokeColor=#82b366;" parent="1" vertex="1">
          <mxGeometry x="174.5" y="1965" width="141.25" height="60" as="geometry" />
        </mxCell>
        <mxCell id="JdAPHGG0hjGzJBnrjypk-85" value="Pos_Enc" style="text;html=1;strokeColor=none;fillColor=none;align=center;verticalAlign=middle;whiteSpace=wrap;rounded=0;" parent="1" vertex="1">
          <mxGeometry x="225.1300000000001" y="2050" width="40" as="geometry" />
        </mxCell>
        <mxCell id="JdAPHGG0hjGzJBnrjypk-110" style="edgeStyle=orthogonalEdgeStyle;rounded=0;orthogonalLoop=1;jettySize=auto;html=1;" parent="1" source="JdAPHGG0hjGzJBnrjypk-92" target="JdAPHGG0hjGzJBnrjypk-102" edge="1">
          <mxGeometry relative="1" as="geometry" />
        </mxCell>
        <mxCell id="JdAPHGG0hjGzJBnrjypk-92" value="" style="shape=cube;whiteSpace=wrap;html=1;boundedLbl=1;backgroundOutline=1;darkOpacity=0;darkOpacity2=0;size=40;flipH=1;fillColor=#ffe6cc;strokeColor=#d79b00;" parent="1" vertex="1">
          <mxGeometry x="235.75" y="1750" width="80" height="140" as="geometry" />
        </mxCell>
        <mxCell id="JdAPHGG0hjGzJBnrjypk-93" value="Enc" style="text;html=1;strokeColor=none;fillColor=none;align=center;verticalAlign=middle;whiteSpace=wrap;rounded=0;" parent="1" vertex="1">
          <mxGeometry x="255.75" y="1905" width="40" height="20" as="geometry" />
        </mxCell>
        <mxCell id="JdAPHGG0hjGzJBnrjypk-96" value="" style="shape=cube;whiteSpace=wrap;html=1;boundedLbl=1;backgroundOutline=1;darkOpacity=0;darkOpacity2=0;size=40;flipH=1;fillColor=#dae8fc;strokeColor=#6c8ebf;" parent="1" vertex="1">
          <mxGeometry x="564.5" y="1750" width="50" height="140" as="geometry" />
        </mxCell>
        <mxCell id="JdAPHGG0hjGzJBnrjypk-97" value="Features_t-1" style="text;html=1;strokeColor=none;fillColor=none;align=center;verticalAlign=middle;whiteSpace=wrap;rounded=0;" parent="1" vertex="1">
          <mxGeometry x="555.75" y="1910" width="78.75" as="geometry" />
        </mxCell>
        <mxCell id="JdAPHGG0hjGzJBnrjypk-101" style="edgeStyle=orthogonalEdgeStyle;rounded=0;orthogonalLoop=1;jettySize=auto;html=1;" parent="1" source="JdAPHGG0hjGzJBnrjypk-102" target="JdAPHGG0hjGzJBnrjypk-96" edge="1">
          <mxGeometry relative="1" as="geometry" />
        </mxCell>
        <mxCell id="JdAPHGG0hjGzJBnrjypk-102" value="" style="shape=cube;whiteSpace=wrap;html=1;boundedLbl=1;backgroundOutline=1;darkOpacity=0;darkOpacity2=0;size=40;flipH=1;fillColor=#ffe6cc;strokeColor=#d79b00;" parent="1" vertex="1">
          <mxGeometry x="434.5" y="1750" width="86.25" height="140" as="geometry" />
        </mxCell>
        <mxCell id="JdAPHGG0hjGzJBnrjypk-103" value="Dec" style="text;html=1;strokeColor=none;fillColor=none;align=center;verticalAlign=middle;whiteSpace=wrap;rounded=0;" parent="1" vertex="1">
          <mxGeometry x="440.75" y="1910" width="73.75" height="10" as="geometry" />
        </mxCell>
        <mxCell id="JdAPHGG0hjGzJBnrjypk-114" style="edgeStyle=orthogonalEdgeStyle;rounded=0;orthogonalLoop=1;jettySize=auto;html=1;" parent="1" source="JdAPHGG0hjGzJBnrjypk-115" target="JdAPHGG0hjGzJBnrjypk-116" edge="1">
          <mxGeometry relative="1" as="geometry" />
        </mxCell>
        <mxCell id="JdAPHGG0hjGzJBnrjypk-115" value="t&lt;br&gt;" style="text;html=1;strokeColor=none;fillColor=none;align=center;verticalAlign=middle;whiteSpace=wrap;rounded=0;" parent="1" vertex="1">
          <mxGeometry x="147.93" y="1262.5" width="40" height="50" as="geometry" />
        </mxCell>
        <mxCell id="JdAPHGG0hjGzJBnrjypk-118" style="edgeStyle=orthogonalEdgeStyle;rounded=0;orthogonalLoop=1;jettySize=auto;html=1;entryX=0.5;entryY=0;entryDx=0;entryDy=0;" parent="1" source="JdAPHGG0hjGzJBnrjypk-116" target="JdAPHGG0hjGzJBnrjypk-68" edge="1">
          <mxGeometry relative="1" as="geometry">
            <Array as="points">
              <mxPoint x="382.18" y="1288" />
              <mxPoint x="382.18" y="1368" />
              <mxPoint x="347.18" y="1368" />
            </Array>
          </mxGeometry>
        </mxCell>
        <mxCell id="JdAPHGG0hjGzJBnrjypk-116" value="" style="shape=cube;whiteSpace=wrap;html=1;boundedLbl=1;backgroundOutline=1;darkOpacity=0;darkOpacity2=0;size=20;flipH=1;fillColor=#d5e8d4;strokeColor=#82b366;" parent="1" vertex="1">
          <mxGeometry x="217.93" y="1257.5" width="141.25" height="60" as="geometry" />
        </mxCell>
        <mxCell id="JdAPHGG0hjGzJBnrjypk-117" value="Pos_Enc" style="text;html=1;strokeColor=none;fillColor=none;align=center;verticalAlign=middle;whiteSpace=wrap;rounded=0;" parent="1" vertex="1">
          <mxGeometry x="268.5600000000001" y="1342.5" width="40" as="geometry" />
        </mxCell>
        <mxCell id="JdAPHGG0hjGzJBnrjypk-119" value="" style="shape=cube;whiteSpace=wrap;html=1;boundedLbl=1;backgroundOutline=1;darkOpacity=0;darkOpacity2=0;size=40;flipH=1;fillColor=#ffe6cc;strokeColor=#d79b00;" parent="1" vertex="1">
          <mxGeometry x="397.18" y="1360" width="65" height="140" as="geometry" />
        </mxCell>
        <mxCell id="JdAPHGG0hjGzJBnrjypk-121" value="Attn" style="text;html=1;strokeColor=none;fillColor=none;align=center;verticalAlign=middle;whiteSpace=wrap;rounded=0;" parent="1" vertex="1">
          <mxGeometry x="402.18" y="1520" width="40" as="geometry" />
        </mxCell>
      </root>
    </mxGraphModel>
  </diagram>
</mxfile>
